# xmcd CD database file
# Copyright (C) 1993-1998 Ti Kan
#
# Track frame offsets:
#	150
#	31143
#	49848
#	66460
#	87213
#	100573
#	116308
#	133098
#	142848
#	156223
#
# Disc length: 2261 seconds
#
# Revision: 2
# Processed by: cddbd v1.4b41PL1 Copyright (c) Steve Scherf et al.
# Submitted via: NotifyCDPlayer(CDDB) 1.51.3
#
DISCID=7c08d30a
DTITLE=Mansfield-Turner - Blues With A Feelin'
DYEAR=1900
DGENRE=
TTITLE0=Million Dollar Feelin'
TTITLE1=Stand By Me
TTITLE2=People Get Ready
TTITLE3=Jesus Comin' Soon
TTITLE4=Don't Sell your Soul For Money
TTITLE5=Blues With A Feelin'
TTITLE6=Everyday Will Be Sunday
TTITLE7=I'm Just Your Fool
TTITLE8=Nobody's Fault But Mine
TTITLE9=At The Table of The Lord
EXTD=
EXTT0=
EXTT1=
EXTT2=
EXTT3=
EXTT4=
EXTT5=
EXTT6=
EXTT7=
EXTT8=
EXTT9=
PLAYORDER=
